<?xml version="1.0" encoding="utf-8"?>
<!-- Generator: Adobe Illustrator 25.4.1, SVG Export Plug-In . SVG Version: 6.00 Build 0)  -->
<svg version="1.1" id="Layer_1" xmlns="http://www.w3.org/2000/svg" xmlns:xlink="http://www.w3.org/1999/xlink" x="0px" y="0px"
	 viewBox="0 0 66.2 86.5" style="enable-background:new 0 0 66.2 86.5;" xml:space="preserve">
<path d="M33.2,19.4c-7.5,0-13.7,6.1-13.7,13.7s6.1,13.7,13.7,13.7c7.5,0,13.7-6.1,13.7-13.7S40.7,19.4,33.2,19.4z M33.2,44.2
	c-6.1,0-11.1-5-11.1-11.1S27.1,22,33.2,22s11.1,5,11.1,11.1S39.3,44.2,33.2,44.2z"/>
<path d="M33.2,0C14.9,0,0,14.9,0,33.2c0,17.9,30.9,51.5,32.2,52.9c0.2,0.3,0.6,0.4,0.9,0.4s0.7-0.1,0.9-0.4
	c1.3-1.4,32.2-35,32.2-52.9C66.3,14.9,51.4,0,33.2,0z M33.2,83.4c-5.3-5.9-30.6-35-30.6-50.2c0-16.9,13.7-30.7,30.6-30.7
	s30.6,13.7,30.6,30.6C63.8,48.4,38.4,77.5,33.2,83.4z"/>
</svg>
