<?xml version="1.0" encoding="utf-8"?>
<!-- Generator: Adobe Illustrator 25.4.1, SVG Export Plug-In . SVG Version: 6.00 Build 0)  -->
<svg version="1.1" id="Layer_1" xmlns="http://www.w3.org/2000/svg" xmlns:xlink="http://www.w3.org/1999/xlink" x="0px" y="0px"
	 viewBox="0 0 68.2 88.5" style="enable-background:new 0 0 68.2 88.5;" xml:space="preserve">
<style type="text/css">
	.st0{fill:#69D2AA;stroke:#FFFFFF;stroke-width:2;}
	.st1{fill-rule:evenodd;clip-rule:evenodd;fill:#FFFFFF;}
	.st2{filter:url(#Adobe_OpacityMaskFilter);}
	.st3{mask:url(#tier-logo-b_00000078734138922116737190000002520739340393278097_);}
	.st4{fill:#FFFFFF;}
</style>
<g>
	<path class="st0" d="M34.2,1C15.9,1,1,15.9,1,34.2c0,17.9,30.9,51.5,32.2,52.9c0.2,0.3,0.6,0.4,0.9,0.4s0.7-0.1,0.9-0.4
		c1.3-1.4,32.2-35,32.2-52.9C67.3,15.9,52.4,1,34.2,1z"/>
</g>
<g>
	<g id="use5_00000178177014052857046980000000931765631827567035_">
		<path id="tier-logo-a_00000145762519778890321250000001011745836620177805_" class="st1" d="M48.8,33.7h8c1.6,0,2-0.7,1.9-1.5
			c-0.1-0.6-0.6-1.1-1.9-1.1h-8V33.7z M46.9,29l10,0c2.6,0,3.8,1.2,4.1,2.8c0.4,2.1-0.6,3.9-3.8,3.9l4.5,2.8
			c0.2,0.1,0.2,0.3,0.1,0.5c-0.1,0.1-0.2,0.2-0.3,0.2h-2c-0.1,0-0.1,0-0.2-0.1l-5.3-3.5h-5.1v3.1c0,0.2-0.2,0.4-0.4,0.4h-1.6
			c-0.2,0-0.4-0.2-0.4-0.4v-9.6C46.5,29.2,46.7,29,46.9,29L46.9,29z M30.1,29h13.3c0.2,0,0.4,0.2,0.4,0.4v1.3c0,0.2-0.2,0.4-0.4,0.4
			h0l-11.4,0v2.2H42c0.2,0,0.4,0.2,0.4,0.4v1.1c0,0.2-0.2,0.4-0.4,0.4H32v2.2h11.4c0.2,0,0.4,0.2,0.4,0.4v1.3c0,0.2-0.2,0.4-0.4,0.4
			H30.1c-0.2,0-0.4-0.2-0.4-0.4v-9.6C29.8,29.2,29.9,29,30.1,29L30.1,29z M25.2,29h1.6c0.2,0,0.4,0.2,0.4,0.4v9.6
			c0,0.2-0.2,0.4-0.4,0.4h-1.6c-0.2,0-0.4-0.2-0.4-0.4v-9.6C24.9,29.2,25,29,25.2,29L25.2,29z M6.8,29h15.1c0.2,0,0.4,0.2,0.4,0.4
			v1.3c0,0.2-0.2,0.4-0.4,0.4h-6.4v7.9c0,0.2-0.2,0.4-0.4,0.4h-1.6c-0.2,0-0.4-0.2-0.4-0.4v-7.9H6.8c-0.2,0-0.4-0.2-0.4-0.4v-1.3
			C6.4,29.2,6.6,29,6.8,29L6.8,29z"/>
	</g>
	<g id="g14_00000013176146322935474280000012478489377288970380_">
		<g id="use8_00000081644916636814807840000008425387500085365918_">
			<path id="tier-logo-a_00000180343810712067861840000013331814939263740318_" class="st1" d="M48.8,33.7h8c1.6,0,2-0.7,1.9-1.5
				c-0.1-0.6-0.6-1.1-1.9-1.1h-8V33.7z M46.9,29l10,0c2.6,0,3.8,1.2,4.1,2.8c0.4,2.1-0.6,3.9-3.8,3.9l4.5,2.8
				c0.2,0.1,0.2,0.3,0.1,0.5c-0.1,0.1-0.2,0.2-0.3,0.2h-2c-0.1,0-0.1,0-0.2-0.1l-5.3-3.5h-5.1v3.1c0,0.2-0.2,0.4-0.4,0.4h-1.6
				c-0.2,0-0.4-0.2-0.4-0.4v-9.6C46.5,29.2,46.7,29,46.9,29L46.9,29z M30.1,29h13.3c0.2,0,0.4,0.2,0.4,0.4v1.3
				c0,0.2-0.2,0.4-0.4,0.4h0l-11.4,0v2.2H42c0.2,0,0.4,0.2,0.4,0.4v1.1c0,0.2-0.2,0.4-0.4,0.4H32v2.2h11.4c0.2,0,0.4,0.2,0.4,0.4
				v1.3c0,0.2-0.2,0.4-0.4,0.4H30.1c-0.2,0-0.4-0.2-0.4-0.4v-9.6C29.8,29.2,29.9,29,30.1,29L30.1,29z M25.2,29h1.6
				c0.2,0,0.4,0.2,0.4,0.4v9.6c0,0.2-0.2,0.4-0.4,0.4h-1.6c-0.2,0-0.4-0.2-0.4-0.4v-9.6C24.9,29.2,25,29,25.2,29L25.2,29z M6.8,29
				h15.1c0.2,0,0.4,0.2,0.4,0.4v1.3c0,0.2-0.2,0.4-0.4,0.4h-6.4v7.9c0,0.2-0.2,0.4-0.4,0.4h-1.6c-0.2,0-0.4-0.2-0.4-0.4v-7.9H6.8
				c-0.2,0-0.4-0.2-0.4-0.4v-1.3C6.4,29.2,6.6,29,6.8,29L6.8,29z"/>
		</g>
		<defs>
			<filter id="Adobe_OpacityMaskFilter" filterUnits="userSpaceOnUse" x="6.4" y="29" width="55.3" height="10.3">
				<feColorMatrix  type="matrix" values="1 0 0 0 0  0 1 0 0 0  0 0 1 0 0  0 0 0 1 0"/>
			</filter>
		</defs>
		
			<mask maskUnits="userSpaceOnUse" x="6.4" y="29" width="55.3" height="10.3" id="tier-logo-b_00000078734138922116737190000002520739340393278097_">
			<g id="use5_00000098220103526218944490000004214334948915709849_" class="st2">
				<path id="tier-logo-a_00000171716848727563656570000007407824964778111650_" class="st1" d="M48.8,33.7h8c1.6,0,2-0.7,1.9-1.5
					c-0.1-0.6-0.6-1.1-1.9-1.1h-8V33.7z M46.9,29l10,0c2.6,0,3.8,1.2,4.1,2.8c0.4,2.1-0.6,3.9-3.8,3.9l4.5,2.8
					c0.2,0.1,0.2,0.3,0.1,0.5c-0.1,0.1-0.2,0.2-0.3,0.2h-2c-0.1,0-0.1,0-0.2-0.1l-5.3-3.5h-5.1v3.1c0,0.2-0.2,0.4-0.4,0.4h-1.6
					c-0.2,0-0.4-0.2-0.4-0.4v-9.6C46.5,29.2,46.7,29,46.9,29L46.9,29z M30.1,29h13.3c0.2,0,0.4,0.2,0.4,0.4v1.3
					c0,0.2-0.2,0.4-0.4,0.4h0l-11.4,0v2.2H42c0.2,0,0.4,0.2,0.4,0.4v1.1c0,0.2-0.2,0.4-0.4,0.4H32v2.2h11.4c0.2,0,0.4,0.2,0.4,0.4
					v1.3c0,0.2-0.2,0.4-0.4,0.4H30.1c-0.2,0-0.4-0.2-0.4-0.4v-9.6C29.8,29.2,29.9,29,30.1,29L30.1,29z M25.2,29h1.6
					c0.2,0,0.4,0.2,0.4,0.4v9.6c0,0.2-0.2,0.4-0.4,0.4h-1.6c-0.2,0-0.4-0.2-0.4-0.4v-9.6C24.9,29.2,25,29,25.2,29L25.2,29z M6.8,29
					h15.1c0.2,0,0.4,0.2,0.4,0.4v1.3c0,0.2-0.2,0.4-0.4,0.4h-6.4v7.9c0,0.2-0.2,0.4-0.4,0.4h-1.6c-0.2,0-0.4-0.2-0.4-0.4v-7.9H6.8
					c-0.2,0-0.4-0.2-0.4-0.4v-1.3C6.4,29.2,6.6,29,6.8,29L6.8,29z"/>
			</g>
		</mask>
		<g id="g12_00000025432795024207359230000003158231265603823236_" class="st3">
			<rect id="rect10_00000094597570344424917580000008719088643897359492_" x="6.4" y="29" class="st4" width="55.3" height="10.3"/>
		</g>
	</g>
</g>
</svg>
