<?xml version="1.0" encoding="UTF-8"?>
<!-- Generator: Adobe Illustrator 25.4.1, SVG Export Plug-In . SVG Version: 6.00 Build 0)  -->
<svg version="1.1" id="Layer_1" xmlns="http://www.w3.org/2000/svg" xmlns:xlink="http://www.w3.org/1999/xlink" x="0px" y="0px" viewBox="0 0 68.2 88.5" style="enable-background:new 0 0 68.2 88.5;" xml:space="preserve">
<style type="text/css">
	.st0{fill:#323232;stroke:#FFFFFF;stroke-width:2;}
	.st1{fill:#FFFFFF;}
</style>
<g>
	<path class="st0" d="M34.2,1C15.9,1,1,15.9,1,34.2c0,17.9,30.9,51.5,32.2,52.9c0.2,0.3,0.6,0.4,0.9,0.4s0.7-0.1,0.9-0.4   c1.3-1.4,32.2-35,32.2-52.9C67.3,15.9,52.4,1,34.2,1z"/>
</g>
<path class="st1" d="M45,39.2c-0.3,0.9-1,1.6-1.8,2c-0.8,0.4-1.8,0.5-2.6,0.3c-0.9-0.2-1.7-0.8-2.2-1.6c-0.5-0.8-0.7-1.7-0.6-2.6  c0.2-0.8,0.7-1.5,1.4-2.1c0.7-0.5,1.5-0.8,2.4-0.7h15.7c0.6-0.1,1.2-0.4,1.6-0.8c0.4-0.5,0.7-1.1,0.7-1.7H41.6  c-0.9,0-1.7,0.1-2.5,0.5c-0.8,0.3-1.5,0.8-2.1,1.4c-0.6,0.6-1.1,1.3-1.4,2.1c-0.3,0.8-0.5,1.6-0.4,2.5c0,0.8,0.2,1.6,0.5,2.4  c0.3,0.7,0.8,1.4,1.4,2c0.6,0.6,1.3,1,2.1,1.3s1.6,0.4,2.4,0.4c1.5-0.1,2.8-0.6,3.9-1.6c1.1-1,1.8-2.3,2-3.7H45z M38.7,38.1h12.6  c0.6-0.1,1.2-0.3,1.6-0.8c0.4-0.5,0.7-1,0.7-1.7H40.9c-0.6,0.1-1.1,0.4-1.5,0.9C39,36.9,38.7,37.5,38.7,38.1z M23.2,39.2  c0.1,0.5,0.3,1,0.5,1.5c0.3,0.4,0.7,0.8,1.1,1.1c0.4,0.3,0.9,0.5,1.5,0.6c0.5,0.1,1.1,0.1,1.6-0.1c0.5-0.1,1-0.4,1.4-0.7  c0.4-0.3,0.7-0.7,1-1.2c0.2-0.5,0.4-1,0.4-1.5c0-0.5-0.1-1.1-0.3-1.5c-0.2-0.8-0.7-1.5-1.4-2.1c-0.7-0.5-1.5-0.8-2.4-0.7H10.9  c-0.6-0.1-1.2-0.4-1.6-0.8c-0.4-0.5-0.7-1.1-0.7-1.7h18.3c0.8,0,1.7,0.2,2.4,0.5c0.8,0.3,1.5,0.8,2,1.4c0.6,0.6,1,1.3,1.3,2.1  c0.3,0.8,0.4,1.6,0.4,2.5c0,0.8-0.2,1.6-0.5,2.4c-0.3,0.8-0.8,1.4-1.4,2c-0.6,0.6-1.3,1-2,1.3c-0.8,0.3-1.6,0.5-2.4,0.5  c-1.5,0-3-0.6-4.1-1.6c-1.1-1-1.9-2.4-2.1-3.9H23.2z M29.5,38.1H16.9c-0.6-0.1-1.2-0.3-1.6-0.8c-0.4-0.5-0.7-1-0.7-1.7h12.9  c0.6,0.1,1.1,0.4,1.5,0.9C29.2,36.9,29.5,37.5,29.5,38.1z M34.1,23.1c2.3,0,4.6,0.7,6.5,2.1c1.9,1.3,3.4,3.2,4.2,5.4h-2.1  c-0.5-1.1-1.3-2.2-2.2-3c-0.9-0.8-2-1.5-3.2-1.9c-1.2-0.4-2.5-0.6-3.7-0.5c-1.3,0.1-2.5,0.4-3.6,0.9c-2,0.9-3.5,2.5-4.4,4.5h-2.1  c0.8-2.2,2.3-4,4.2-5.3c1.9-1.3,4.2-2,6.5-2V23.1z M34.1,20.3c3,0,6,1,8.5,2.8c2.4,1.8,4.3,4.4,5.1,7.3h-1.3  c-0.9-2.6-2.5-4.8-4.7-6.4c-2.2-1.6-4.9-2.5-7.6-2.5c-2.7,0-5.4,0.9-7.6,2.5c-2.2,1.6-3.9,3.8-4.7,6.4h-1.3c0.9-2.9,2.7-5.4,5.2-7.2  c2.4-1.8,5.4-2.8,8.4-2.8V20.3z M43.1,45.9c-2.5,2.1-5.7,3.2-9,3.2c-3.3,0-6.4-1.1-9-3.2c0.6,0.1,1.1,0.1,1.7,0h0.7  c2,1.2,4.3,1.8,6.6,1.8s4.6-0.6,6.6-1.8h0.9c0.6,0.1,1.1,0.1,1.7,0H43.1z"/>
</svg>