<?xml version="1.0" encoding="UTF-8"?>
<!-- Generator: Adobe Illustrator 25.4.1, SVG Export Plug-In . SVG Version: 6.00 Build 0)  -->
<svg version="1.1" id="Layer_1" xmlns="http://www.w3.org/2000/svg" xmlns:xlink="http://www.w3.org/1999/xlink" x="0px" y="0px" viewBox="0 0 68.2 88.5" style="enable-background:new 0 0 68.2 88.5;" xml:space="preserve">
<style type="text/css">
	.st0{fill:#00DD00;stroke:#FFFFFF;stroke-width:2;}
	.st1{fill:#FFFFFF;}
	.st2{fill-rule:evenodd;clip-rule:evenodd;fill:#FFFFFF;}
</style>
<g>
	<path class="st0" d="M34.2,1C15.9,1,1,15.9,1,34.2c0,17.9,30.9,51.5,32.2,52.9c0.2,0.3,0.6,0.4,0.9,0.4s0.7-0.1,0.9-0.4   c1.3-1.4,32.2-35,32.2-52.9C67.3,15.9,52.4,1,34.2,1z"/>
	<g transform="translate(30,20)">
		<path class="st1" d="M0.7,14.7c0-1.4,1.1-2.5,2.5-2.5s2.5,1.1,2.5,2.5c0,1.4-1.1,2.5-2.5,2.5S0.7,16.1,0.7,14.7z"/>
		<path class="st1" d="M7.5,11l6-3.5c1.2-0.7,1.4-2.3,0.4-3.3c-1.9-1.9-4.3-3.3-7-4c-1.3-0.3-2.6,0.7-2.6,2v6.9    C4.3,10.8,6.1,11.8,7.5,11z"/>
		<path class="st1" d="M2.2,9.2V2.3c0-1.4-1.3-2.4-2.6-2c-2.7,0.7-5.1,2.1-7,4c-1,1-0.7,2.6,0.4,3.3l6,3.5    C0.4,11.8,2.2,10.8,2.2,9.2z"/>
		<path class="st1" d="M8.6,16.6l6,3.5c1.2,0.7,2.7,0.1,3.1-1.2c0.4-1.3,0.6-2.6,0.6-4c0-1.4-0.2-2.8-0.6-4    c-0.4-1.3-1.9-1.9-3.1-1.2l-6,3.5C7.2,13.7,7.2,15.8,8.6,16.6z"/>
		<path class="st1" d="M-1,18.4l-6,3.5c-1.2,0.7-1.4,2.3-0.4,3.3c1.9,1.9,4.3,3.3,7,4c1.3,0.3,2.6-0.7,2.6-2v-6.9    C2.2,18.7,0.4,17.6-1,18.4z"/>
		<path class="st1" d="M-2.1,12.9l-6-3.5c-1.2-0.7-2.7-0.1-3.1,1.2c-0.4,1.3-0.6,2.6-0.6,4c0,1.4,0.2,2.8,0.6,4    c0.4,1.3,1.9,1.9,3.1,1.2l6-3.5C-0.7,15.8-0.7,13.7-2.1,12.9z"/>
		<path class="st1" d="M4.3,20.3v6.9c0,1.4,1.3,2.4,2.6,2c2.7-0.7,5.1-2.1,7-4c1-1,0.7-2.6-0.4-3.3l-6-3.5    C6.1,17.6,4.3,18.7,4.3,20.3z"/>
		<path class="st2" d="M3.3,34.1c-10.7,0-19.4-8.7-19.4-19.4c0-10.7,8.7-19.4,19.4-19.4c10.7,0,19.4,8.7,19.4,19.4    C22.6,25.4,13.9,34.1,3.3,34.1z M20.4,14.7c0-9.5-7.7-17.2-17.2-17.2c-9.5,0-17.2,7.7-17.2,17.2s7.7,17.2,17.2,17.2    C12.7,31.9,20.4,24.2,20.4,14.7z"/>
	</g>
</g>
</svg>