<?xml version="1.0" encoding="UTF-8"?>
<!-- Generator: Adobe Illustrator 25.4.1, SVG Export Plug-In . SVG Version: 6.00 Build 0)  -->
<svg version="1.1" id="Layer_1" xmlns="http://www.w3.org/2000/svg" xmlns:xlink="http://www.w3.org/1999/xlink" x="0px" y="0px" viewBox="0 0 68.2 88.5" style="enable-background:new 0 0 68.2 88.5;" xml:space="preserve">
<style type="text/css">
	.st0{fill:#F46C63;stroke:#FFFFFF;stroke-width:2;}
	.st1{fill:#FFFFFF;}
</style>
<g>
	<path class="st0" d="M34.2,1C15.9,1,1,15.9,1,34.2c0,17.9,30.9,51.5,32.2,52.9c0.2,0.3,0.6,0.4,0.9,0.4s0.7-0.1,0.9-0.4   c1.3-1.4,32.2-35,32.2-52.9C67.3,15.9,52.4,1,34.2,1z"/>
</g>
<path class="st1" d="M24.9,29.9l-6,14.2h-4.2l-6-14.2H13l3.9,9.6l4.1-9.6H24.9z M34.3,44.2c-1.5,0-2.8-0.3-4-0.9  c-1.1-0.6-2.1-1.5-2.8-2.6c-0.7-1.1-1-2.4-1-3.8c0-1.4,0.3-2.7,1-3.8c0.7-1.1,1.6-2,2.8-2.6c1.2-0.6,2.5-0.9,4-0.9  c1.5,0,2.8,0.3,4,0.9c1.1,0.6,2.1,1.5,2.8,2.6c0.7,1.1,1,2.4,1,3.8c0,1.4-0.3,2.7-1,3.8c-0.7,1.1-1.6,2-2.8,2.6  C37.1,43.9,35.8,44.2,34.3,44.2L34.3,44.2z M34.3,40.9c1.1,0,1.9-0.4,2.6-1.1c0.7-0.7,1-1.7,1-2.9c0-1.2-0.3-2.1-1-2.9  c-0.7-0.7-1.5-1.1-2.6-1.1c-1.1,0-1.9,0.4-2.6,1.1c-0.7,0.7-1,1.7-1,2.9c0,1.2,0.3,2.1,1,2.9C32.3,40.5,33.2,40.9,34.3,40.9  L34.3,40.9z M46.1,29.9h4.1V44h-4.1L46.1,29.9z M48.2,27.9c-0.8,0-1.4-0.2-1.8-0.7c-0.5-0.4-0.7-1-0.7-1.6c0-0.6,0.2-1.2,0.7-1.6  c0.5-0.4,1.1-0.7,1.8-0.7c0.8,0,1.4,0.2,1.8,0.6c0.5,0.4,0.7,1,0.7,1.6c0,0.6-0.2,1.3-0.7,1.7C49.5,27.7,48.9,27.9,48.2,27.9  L48.2,27.9z M56.9,44.2c-0.7,0-1.3-0.3-1.8-0.7c-0.5-0.5-0.8-1.2-0.7-1.8c0-0.8,0.2-1.4,0.7-1.8c1-0.9,2.6-0.9,3.6,0  c0.5,0.5,0.7,1.1,0.7,1.8c0,0.7-0.2,1.4-0.7,1.8C58.2,44,57.6,44.3,56.9,44.2L56.9,44.2z"/>
</svg>